<svg xmlns="http://www.w3.org/2000/svg" viewBox="0 0 300 300">
  <defs>
    <radialGradient id="at-bg" cx="50%" cy="50%" r="70%">
      <stop offset="0%" stop-color="#4a7fb5"/>
      <stop offset="100%" stop-color="#1a2a44"/>
    </radialGradient>
    <linearGradient id="at-glow" x1="0" y1="0" x2="0" y2="1">
      <stop offset="0%" stop-color="#6fa8d6" stop-opacity="0.3"/>
      <stop offset="100%" stop-color="#1a2a44" stop-opacity="0"/>
    </linearGradient>
  </defs>
  <rect width="300" height="300" fill="url(#at-bg)"/>
  <!-- Ambient geometric circles -->
  <circle cx="150" cy="130" r="80" fill="none" stroke="#6fa8d6" stroke-width="0.5" opacity="0.6"/>
  <circle cx="150" cy="130" r="60" fill="none" stroke="#8fbfdd" stroke-width="0.4" opacity="0.5"/>
  <circle cx="150" cy="130" r="40" fill="none" stroke="#a0cce8" stroke-width="0.3" opacity="0.4"/>
  <circle cx="150" cy="130" r="20" fill="none" stroke="#b0d8f0" stroke-width="0.3" opacity="0.35"/>
  <circle cx="150" cy="130" r="5" fill="#b0d8f0" opacity="0.25"/>
  <!-- Subtle triangles -->
  <polygon points="150,60 190,140 110,140" fill="none" stroke="#7ab0d4" stroke-width="0.4" opacity="0.35"/>
  <polygon points="150,80 175,130 125,130" fill="none" stroke="#90c4e0" stroke-width="0.3" opacity="0.25"/>
  <polygon points="130,100 170,100 150,65" fill="none" stroke="#a0cce8" stroke-width="0.3" opacity="0.2"/>
  <!-- Scattered soft circles -->
  <circle cx="70" cy="80" r="15" fill="none" stroke="#6fa8d6" stroke-width="0.3" opacity="0.2"/>
  <circle cx="230" cy="90" r="12" fill="none" stroke="#6fa8d6" stroke-width="0.3" opacity="0.15"/>
  <circle cx="60" cy="200" r="20" fill="none" stroke="#8fbfdd" stroke-width="0.3" opacity="0.15"/>
  <circle cx="240" cy="180" r="18" fill="none" stroke="#8fbfdd" stroke-width="0.3" opacity="0.12"/>
  <circle cx="100" cy="170" r="8" fill="none" stroke="#a0cce8" stroke-width="0.3" opacity="0.18"/>
  <circle cx="210" cy="50" r="10" fill="none" stroke="#a0cce8" stroke-width="0.3" opacity="0.15"/>
  <!-- Soft glow overlay -->
  <rect width="300" height="300" fill="url(#at-glow)"/>
  <text x="15" y="285" font-family="monospace" font-size="9" fill="#6090b0" letter-spacing="1">APHEX TWIN — SELECTED AMBIENT WORKS</text>
</svg>