<svg xmlns="http://www.w3.org/2000/svg" viewBox="0 0 300 300">
  <rect width="300" height="300" fill="#f0f0f0"/>
  <!-- fragmented algorithmic geometric shapes - broken, complex -->
  <g fill="none" stroke-linecap="round" stroke-linejoin="round">
    <!-- fragment cluster 1 - upper left -->
    <polygon points="35,45 62,38 58,68 40,65" stroke="#444" stroke-width="1" fill="#555" opacity="0.15"/>
    <line x1="62" y1="38" x2="85" y2="52" stroke="#666" stroke-width="0.8" opacity="0.3"/>
    <polygon points="70,50 95,42 98,70 78,72" stroke="#555" stroke-width="0.7" fill="#666" opacity="0.1"/>
    <line x1="40" y1="65" x2="55" y2="90" stroke="#888" stroke-width="0.5" opacity="0.25"/>
    <!-- fragment cluster 2 - upper right -->
    <polygon points="195,30 228,42 220,65 200,58 192,45" stroke="#333" stroke-width="1.2" fill="#444" opacity="0.12"/>
    <line x1="228" y1="42" x2="248" y2="38" stroke="#555" stroke-width="0.6" opacity="0.3"/>
    <polygon points="240,35 265,50 255,72" stroke="#666" stroke-width="0.8" fill="#777" opacity="0.08"/>
    <line x1="200" y1="58" x2="210" y2="82" stroke="#444" stroke-width="0.7" opacity="0.25"/>
    <rect x="210" y="70" width="18" height="12" fill="#555" opacity="0.08" transform="rotate(15,219,76)"/>
    <!-- fragment cluster 3 - central -->
    <polygon points="120,95 148,88 165,105 155,128 130,130 115,115" stroke="#333" stroke-width="1" fill="#444" opacity="0.1"/>
    <line x1="148" y1="88" x2="172" y2="80" stroke="#555" stroke-width="0.8" opacity="0.2"/>
    <line x1="165" y1="105" x2="188" y2="110" stroke="#666" stroke-width="0.6" opacity="0.25"/>
    <polygon points="170,78 192,85 185,108" stroke="#444" stroke-width="0.9" fill="#555" opacity="0.07"/>
    <line x1="115" y1="115" x2="95" y2="130" stroke="#777" stroke-width="0.5" opacity="0.2"/>
    <!-- fragment cluster 4 - left middle -->
    <polygon points="25,140 50,135 55,160 35,165" stroke="#555" stroke-width="0.8" fill="#666" opacity="0.1"/>
    <line x1="55" y1="160" x2="75" y2="155" stroke="#444" stroke-width="0.7" opacity="0.3"/>
    <polygon points="68,148 88,142 92,168 72,170" stroke="#333" stroke-width="1" fill="#444" opacity="0.08"/>
    <!-- fragment cluster 5 - right middle -->
    <polygon points="215,135 245,128 252,155 230,162" stroke="#444" stroke-width="0.9" fill="#555" opacity="0.12"/>
    <line x1="252" y1="155" x2="270" y2="148" stroke="#666" stroke-width="0.5" opacity="0.2"/>
    <rect x="255" y="142" width="15" height="8" fill="#555" opacity="0.06" transform="rotate(-8,262,146)"/>
    <!-- fragment cluster 6 - lower center -->
    <polygon points="130,175 160,168 175,185 168,208 140,212 125,198" stroke="#333" stroke-width="1.1" fill="#444" opacity="0.1"/>
    <line x1="175" y1="185" x2="200" y2="178" stroke="#555" stroke-width="0.7" opacity="0.2"/>
    <line x1="125" y1="198" x2="105" y2="210" stroke="#666" stroke-width="0.6" opacity="0.22"/>
    <polygon points="100,205 118,195 115,220" stroke="#555" stroke-width="0.8" fill="#666" opacity="0.07"/>
    <polygon points="195,175 218,182 210,202" stroke="#444" stroke-width="0.7" fill="#555" opacity="0.09"/>
    <!-- scattered isolated fragments -->
    <line x1="60" y1="75" x2="78" y2="88" stroke="#888" stroke-width="0.4" opacity="0.2"/>
    <line x1="155" y1="55" x2="168" y2="65" stroke="#777" stroke-width="0.5" opacity="0.18"/>
    <line x1="90" y1="175" x2="105" y2="168" stroke="#666" stroke-width="0.4" opacity="0.2"/>
    <line x1="240" y1="190" x2="258" y2="200" stroke="#555" stroke-width="0.5" opacity="0.15"/>
    <!-- stray geometric debris -->
    <rect x="45" y="220" width="10" height="6" fill="#555" opacity="0.06" transform="rotate(22,50,223)"/>
    <rect x="230" y="220" width="12" height="5" fill="#444" opacity="0.07" transform="rotate(-12,236,222)"/>
    <polygon points="180,230 195,225 190,242" stroke="#666" stroke-width="0.6" fill="#777" opacity="0.06"/>
    <line x1="70" y1="235" x2="88" y2="228" stroke="#888" stroke-width="0.4" opacity="0.15"/>
    <polygon points="260,85 272,78 275,95" stroke="#555" stroke-width="0.6" fill="#666" opacity="0.07"/>
  </g>
  <text x="15" y="285" font-family="monospace" font-size="10" fill="#888" letter-spacing="1">AUTECHRE — CONFIELD</text>
</svg>
