<svg xmlns="http://www.w3.org/2000/svg" viewBox="0 0 300 300">
  <rect width="300" height="300" fill="#f4f0ee"/>
  <!-- Harsh red streaks/bands - industrial noise texture -->
  <!-- Main intense streaks -->
  <rect x="0" y="55" width="300" height="3" fill="#c81818" opacity="0.85"/>
  <rect x="0" y="60" width="300" height="8" fill="#d82020" opacity="0.7"/>
  <rect x="0" y="70" width="300" height="2" fill="#b01010" opacity="0.9"/>
  <rect x="0" y="74" width="300" height="1" fill="#a00808" opacity="0.6"/>
  <rect x="0" y="100" width="300" height="12" fill="#e02828" opacity="0.65"/>
  <rect x="0" y="114" width="300" height="2" fill="#c01818" opacity="0.8"/>
  <rect x="0" y="118" width="300" height="5" fill="#d02020" opacity="0.5"/>
  <!-- Central dense band -->
  <rect x="0" y="135" width="300" height="18" fill="#cc1a1a" opacity="0.75"/>
  <rect x="0" y="138" width="300" height="4" fill="#ff2020" opacity="0.6"/>
  <rect x="0" y="145" width="300" height="2" fill="#ee1818" opacity="0.9"/>
  <rect x="0" y="155" width="300" height="8" fill="#b81414" opacity="0.7"/>
  <rect x="0" y="165" width="300" height="3" fill="#d01c1c" opacity="0.65"/>
  <!-- Lower streaks, sparser -->
  <rect x="0" y="185" width="300" height="5" fill="#c41616" opacity="0.55"/>
  <rect x="0" y="192" width="300" height="1.5" fill="#a81010" opacity="0.7"/>
  <rect x="0" y="210" width="300" height="2" fill="#b01212" opacity="0.5"/>
  <rect x="0" y="215" width="300" height="7" fill="#d82222" opacity="0.4"/>
  <!-- Scattered thin harsh lines -->
  <rect x="20" y="30" width="180" height="1" fill="#cc1818" opacity="0.4"/>
  <rect x="80" y="35" width="220" height="0.8" fill="#b01010" opacity="0.35"/>
  <rect x="0" y="82" width="250" height="1.2" fill="#c01616" opacity="0.5"/>
  <rect x="40" y="90" width="260" height="0.8" fill="#a80c0c" opacity="0.45"/>
  <rect x="0" y="170" width="200" height="1" fill="#c41818" opacity="0.55"/>
  <rect x="100" y="175" width="200" height="0.7" fill="#b01414" opacity="0.4"/>
  <rect x="0" y="230" width="150" height="0.8" fill="#a81010" opacity="0.3"/>
  <rect x="50" y="240" width="250" height="1" fill="#c01616" opacity="0.25"/>
  <rect x="0" y="248" width="100" height="0.6" fill="#b81414" opacity="0.2"/>
  <!-- Upper sparse marks -->
  <rect x="150" y="15" width="120" height="0.6" fill="#cc1818" opacity="0.25"/>
  <rect x="30" y="45" width="80" height="0.7" fill="#b01010" opacity="0.3"/>
  <text x="15" y="285" font-family="monospace" font-size="9" fill="#b82020" letter-spacing="1">BEN FROST — A U R O R A</text>
</svg>