<svg xmlns="http://www.w3.org/2000/svg" viewBox="0 0 300 300">
  <rect width="300" height="300" fill="#1a1410"/>
  <!-- Warm organic blobs connected by lines - Music Easel improvisation -->
  <!-- Connecting patch cables -->
  <line x1="72" y1="95" x2="145" y2="160" stroke="#8B5E3C" stroke-width="1.5" opacity="0.5"/>
  <line x1="145" y1="160" x2="220" y2="110" stroke="#A0522D" stroke-width="1.5" opacity="0.5"/>
  <line x1="220" y1="110" x2="190" y2="200" stroke="#8B5E3C" stroke-width="1.5" opacity="0.4"/>
  <line x1="190" y1="200" x2="100" y2="185" stroke="#A0522D" stroke-width="1.5" opacity="0.5"/>
  <line x1="100" y1="185" x2="72" y2="95" stroke="#CD853F" stroke-width="1.5" opacity="0.4"/>
  <line x1="145" y1="160" x2="190" y2="200" stroke="#D2691E" stroke-width="1" opacity="0.3"/>
  <line x1="72" y1="95" x2="55" y2="55" stroke="#8B5E3C" stroke-width="1" opacity="0.35"/>
  <line x1="220" y1="110" x2="255" y2="75" stroke="#A0522D" stroke-width="1" opacity="0.35"/>
  <line x1="190" y1="200" x2="240" y2="230" stroke="#CD853F" stroke-width="1" opacity="0.3"/>
  <line x1="100" y1="185" x2="65" y2="220" stroke="#8B5E3C" stroke-width="1" opacity="0.3"/>
  <!-- Organic blobs - warm orange/brown -->
  <ellipse cx="72" cy="95" rx="22" ry="18" fill="#D2691E" opacity="0.75"/>
  <ellipse cx="72" cy="95" rx="14" ry="11" fill="#E8913A" opacity="0.6"/>
  <ellipse cx="145" cy="160" rx="28" ry="24" fill="#CD853F" opacity="0.7"/>
  <ellipse cx="145" cy="160" rx="16" ry="13" fill="#DBA05C" opacity="0.55"/>
  <ellipse cx="220" cy="110" rx="20" ry="16" fill="#A0522D" opacity="0.8"/>
  <ellipse cx="220" cy="110" rx="12" ry="9" fill="#C4703A" opacity="0.55"/>
  <ellipse cx="190" cy="200" rx="25" ry="20" fill="#D2691E" opacity="0.65"/>
  <ellipse cx="190" cy="200" rx="15" ry="12" fill="#E8913A" opacity="0.5"/>
  <ellipse cx="100" cy="185" rx="18" ry="15" fill="#8B5E3C" opacity="0.7"/>
  <ellipse cx="100" cy="185" rx="10" ry="8" fill="#B07848" opacity="0.55"/>
  <!-- Smaller satellite blobs -->
  <ellipse cx="55" cy="55" rx="10" ry="8" fill="#CD853F" opacity="0.5"/>
  <ellipse cx="255" cy="75" rx="12" ry="9" fill="#D2691E" opacity="0.45"/>
  <ellipse cx="240" cy="230" rx="11" ry="9" fill="#A0522D" opacity="0.5"/>
  <ellipse cx="65" cy="220" rx="9" ry="7" fill="#CD853F" opacity="0.45"/>
  <!-- Tiny accent dots suggesting signal flow -->
  <circle cx="108" cy="127" r="3" fill="#E8913A" opacity="0.4"/>
  <circle cx="183" cy="135" r="2.5" fill="#DBA05C" opacity="0.4"/>
  <circle cx="205" cy="155" r="2" fill="#CD853F" opacity="0.35"/>
  <circle cx="85" cy="140" r="2.5" fill="#D2691E" opacity="0.35"/>
  <circle cx="165" cy="180" r="2" fill="#E8913A" opacity="0.3"/>
  <text x="15" y="285" font-family="monospace" font-size="9" fill="#8B7355" letter-spacing="1">CHARLES COHEN — BROTHER I PROVE YOU WRONG</text>
</svg>