<svg xmlns="http://www.w3.org/2000/svg" viewBox="0 0 300 300">
  <rect width="300" height="300" fill="#f5efe4"/>
  <!-- patch cable connection points (dots) -->
  <g>
    <circle cx="45" cy="50" r="5" fill="#8a7050" opacity="0.6"/>
    <circle cx="120" cy="40" r="5" fill="#8a7050" opacity="0.6"/>
    <circle cx="230" cy="55" r="5" fill="#8a7050" opacity="0.6"/>
    <circle cx="260" cy="130" r="5" fill="#8a7050" opacity="0.6"/>
    <circle cx="70" cy="120" r="5" fill="#8a7050" opacity="0.6"/>
    <circle cx="160" cy="100" r="5" fill="#8a7050" opacity="0.6"/>
    <circle cx="40" cy="190" r="5" fill="#8a7050" opacity="0.6"/>
    <circle cx="180" cy="180" r="5" fill="#8a7050" opacity="0.6"/>
    <circle cx="110" cy="210" r="5" fill="#8a7050" opacity="0.6"/>
    <circle cx="250" cy="200" r="5" fill="#8a7050" opacity="0.6"/>
    <circle cx="200" cy="250" r="5" fill="#8a7050" opacity="0.6"/>
    <circle cx="80" cy="245" r="5" fill="#8a7050" opacity="0.6"/>
  </g>
  <!-- patch cables - curved lines connecting the dots -->
  <g fill="none" stroke-linecap="round">
    <!-- mustard cables -->
    <path d="M45,50 Q80,20 120,40" stroke="#c8a030" stroke-width="2" opacity="0.5"/>
    <path d="M120,40 Q200,30 230,55" stroke="#c8a030" stroke-width="1.8" opacity="0.45"/>
    <path d="M70,120 Q120,80 160,100" stroke="#c8a030" stroke-width="2" opacity="0.5"/>
    <!-- brown cables -->
    <path d="M45,50 Q30,85 70,120" stroke="#8a6040" stroke-width="2.2" opacity="0.4"/>
    <path d="M230,55 Q270,90 260,130" stroke="#8a6040" stroke-width="1.8" opacity="0.45"/>
    <path d="M160,100 Q200,140 180,180" stroke="#8a6040" stroke-width="2" opacity="0.42"/>
    <!-- cream/tan cables -->
    <path d="M70,120 Q30,155 40,190" stroke="#b89870" stroke-width="2" opacity="0.38"/>
    <path d="M260,130 Q280,165 250,200" stroke="#b89870" stroke-width="1.8" opacity="0.4"/>
    <path d="M40,190 Q75,200 110,210" stroke="#b89870" stroke-width="2.2" opacity="0.35"/>
    <!-- long drooping cables -->
    <path d="M160,100 Q100,160 110,210" stroke="#c8a030" stroke-width="1.5" opacity="0.35"/>
    <path d="M180,180 Q220,210 250,200" stroke="#8a6040" stroke-width="1.8" opacity="0.38"/>
    <path d="M110,210 Q150,240 200,250" stroke="#c8a030" stroke-width="2" opacity="0.4"/>
    <path d="M40,190 Q55,230 80,245" stroke="#b89870" stroke-width="1.6" opacity="0.35"/>
    <path d="M80,245 Q140,260 200,250" stroke="#8a6040" stroke-width="1.5" opacity="0.32"/>
  </g>
  <!-- inner dot highlights -->
  <g>
    <circle cx="45" cy="50" r="2" fill="#f5efe4" opacity="0.5"/>
    <circle cx="120" cy="40" r="2" fill="#f5efe4" opacity="0.5"/>
    <circle cx="230" cy="55" r="2" fill="#f5efe4" opacity="0.5"/>
    <circle cx="260" cy="130" r="2" fill="#f5efe4" opacity="0.5"/>
    <circle cx="70" cy="120" r="2" fill="#f5efe4" opacity="0.5"/>
    <circle cx="160" cy="100" r="2" fill="#f5efe4" opacity="0.5"/>
    <circle cx="40" cy="190" r="2" fill="#f5efe4" opacity="0.5"/>
    <circle cx="180" cy="180" r="2" fill="#f5efe4" opacity="0.5"/>
    <circle cx="110" cy="210" r="2" fill="#f5efe4" opacity="0.5"/>
    <circle cx="250" cy="200" r="2" fill="#f5efe4" opacity="0.5"/>
    <circle cx="200" cy="250" r="2" fill="#f5efe4" opacity="0.5"/>
    <circle cx="80" cy="245" r="2" fill="#f5efe4" opacity="0.5"/>
  </g>
  <text x="15" y="285" font-family="monospace" font-size="10" fill="#8a7050" letter-spacing="1">CIANI — BUCHLA CONCERTS 1975</text>
</svg>
