<svg xmlns="http://www.w3.org/2000/svg" viewBox="0 0 300 300">
  <rect width="300" height="300" fill="#2a2d2a"/>
  <!-- Organic waveform shape - field recording / drone character -->
  <path d="M0,150
    Q5,148 10,149 L12,150 Q15,146 18,148 L20,150
    Q25,144 30,147 Q35,142 40,145 Q45,138 50,143
    Q55,135 60,140 Q65,132 70,138 Q75,128 80,135
    Q85,125 90,132 Q95,120 100,128 Q105,118 110,125
    Q115,115 120,122 Q125,112 130,118 Q135,108 140,115
    Q142,105 145,110 Q148,102 150,108 Q152,100 155,106
    Q158,98 160,105 Q163,100 165,108 Q168,103 170,112
    Q173,108 175,116 Q178,112 180,120 Q183,118 185,125
    Q188,122 190,130 Q193,128 195,135 Q198,132 200,138
    Q203,135 205,140 Q208,138 210,143 Q215,140 220,145
    Q225,142 230,147 Q235,144 240,148 Q245,146 250,149
    Q255,148 260,150 Q265,149 270,150 Q275,149 280,150
    Q285,150 290,150 L300,150"
    fill="none" stroke="#5a7a5a" stroke-width="2" opacity="0.8"/>
  <!-- Second waveform layer, slightly offset -->
  <path d="M0,150
    Q8,152 15,151 Q20,154 25,152 Q30,156 35,153
    Q40,158 45,155 Q50,160 55,157 Q60,163 65,159
    Q70,165 75,161 Q80,168 85,163 Q90,170 95,165
    Q100,172 105,167 Q110,175 115,170 Q120,178 125,172
    Q130,180 135,174 Q138,182 140,176 Q143,185 145,178
    Q148,188 150,180 Q152,190 155,182 Q158,188 160,178
    Q163,185 165,176 Q168,182 170,174 Q173,180 175,172
    Q178,178 180,170 Q183,175 185,167 Q188,172 190,165
    Q193,170 195,163 Q198,168 200,161 Q205,165 210,158
    Q215,162 220,156 Q225,160 230,154 Q235,157 240,152
    Q245,155 250,151 Q255,153 260,150 Q270,151 280,150 L300,150"
    fill="none" stroke="#4a6a4a" stroke-width="1.5" opacity="0.6"/>
  <!-- Filled waveform body between the two paths -->
  <path d="M0,150
    Q5,148 10,149 Q15,146 20,150 Q25,144 30,147 Q35,142 40,145
    Q45,138 50,143 Q55,135 60,140 Q65,132 70,138 Q75,128 80,135
    Q85,125 90,132 Q95,120 100,128 Q105,118 110,125 Q115,115 120,122
    Q125,112 130,118 Q135,108 140,115 Q142,105 145,110 Q148,102 150,108
    Q152,100 155,106 Q158,98 160,105 Q163,100 165,108 Q168,103 170,112
    Q175,116 180,120 Q185,125 190,130 Q195,135 200,138 Q205,140 210,143
    Q215,145 220,147 Q230,148 240,149 Q250,150 260,150 L300,150
    L300,150
    Q270,151 260,150 Q255,153 250,151 Q245,155 240,152 Q235,157 230,154
    Q225,160 220,156 Q215,162 210,158 Q205,165 200,161 Q195,163 190,165
    Q185,167 180,170 Q175,172 170,174 Q165,176 160,178 Q155,182 150,180
    Q148,188 145,178 Q143,185 140,176 Q138,182 135,174 Q130,180 125,172
    Q120,178 115,170 Q110,175 105,167 Q100,172 95,165 Q90,170 85,163
    Q80,168 75,161 Q70,165 65,159 Q60,163 55,157 Q50,160 45,155
    Q40,158 35,153 Q30,156 25,152 Q20,154 15,151 Q8,152 0,150 Z"
    fill="#5a7a5a" opacity="0.12"/>
  <!-- Subtle texture dots -->
  <circle cx="148" cy="105" r="1.5" fill="#6a8a6a" opacity="0.3"/>
  <circle cx="160" cy="100" r="1" fill="#6a8a6a" opacity="0.25"/>
  <circle cx="135" cy="112" r="1.2" fill="#6a8a6a" opacity="0.2"/>
  <text x="15" y="285" font-family="monospace" font-size="9" fill="#5a7a5a" letter-spacing="1">LAWRENCE ENGLISH — CRUEL OPTIMISM</text>
</svg>