<svg xmlns="http://www.w3.org/2000/svg" viewBox="0 0 300 300">
  <defs>
    <linearGradient id="lo-bg" x1="0" y1="0" x2="0" y2="1">
      <stop offset="0%" stop-color="#0d2b3e"/>
      <stop offset="40%" stop-color="#0a3a4a"/>
      <stop offset="100%" stop-color="#051a22"/>
    </linearGradient>
  </defs>
  <rect width="300" height="300" fill="url(#lo-bg)"/>
  <!-- Underwater wave lines - horizontal, undulating -->
  <path d="M0,40 Q40,35 75,42 T150,38 T225,44 T300,40" fill="none" stroke="#1a6070" stroke-width="0.6" opacity="0.3"/>
  <path d="M0,60 Q50,54 100,62 T200,56 T300,60" fill="none" stroke="#1a6878" stroke-width="0.7" opacity="0.35"/>
  <path d="M0,85 Q60,78 120,88 T240,80 T300,85" fill="none" stroke="#1d7080" stroke-width="0.8" opacity="0.4"/>
  <path d="M0,105 Q45,98 90,108 T180,100 T270,106 T300,103" fill="none" stroke="#207888" stroke-width="0.9" opacity="0.45"/>
  <path d="M0,125 Q55,118 110,128 T220,120 T300,126" fill="none" stroke="#238090" stroke-width="1.0" opacity="0.5"/>
  <path d="M0,142 Q70,134 140,145 T280,137 T300,142" fill="none" stroke="#268898" stroke-width="1.1" opacity="0.55"/>
  <path d="M0,158 Q50,150 100,160 T200,152 T300,158" fill="none" stroke="#2990a0" stroke-width="1.2" opacity="0.6"/>
  <path d="M0,172 Q65,164 130,175 T260,166 T300,172" fill="none" stroke="#2c98a8" stroke-width="1.3" opacity="0.55"/>
  <path d="M0,188 Q45,180 90,190 T180,182 T270,189 T300,186" fill="none" stroke="#2fa0b0" stroke-width="1.2" opacity="0.5"/>
  <path d="M0,205 Q55,198 110,208 T220,200 T300,205" fill="none" stroke="#32a8b8" stroke-width="1.1" opacity="0.45"/>
  <path d="M0,222 Q60,215 120,224 T240,217 T300,222" fill="none" stroke="#35b0c0" stroke-width="1.0" opacity="0.4"/>
  <path d="M0,238 Q50,232 100,240 T200,234 T300,238" fill="none" stroke="#38b8c8" stroke-width="0.8" opacity="0.35"/>
  <path d="M0,252 Q70,246 140,254 T280,248 T300,252" fill="none" stroke="#3bc0d0" stroke-width="0.7" opacity="0.3"/>
  <!-- Deeper, thicker undercurrents -->
  <path d="M0,150 Q75,138 150,155 T300,145" fill="none" stroke="#1a8898" stroke-width="2" opacity="0.15"/>
  <path d="M0,190 Q75,178 150,195 T300,185" fill="none" stroke="#1a7888" stroke-width="2.5" opacity="0.12"/>
  <!-- Faint particles / sediment -->
  <circle cx="45" cy="200" r="1" fill="#2090a0" opacity="0.2"/>
  <circle cx="120" cy="170" r="1.2" fill="#2090a0" opacity="0.15"/>
  <circle cx="200" cy="220" r="0.8" fill="#2090a0" opacity="0.18"/>
  <circle cx="260" cy="160" r="1" fill="#2090a0" opacity="0.12"/>
  <circle cx="80" cy="240" r="0.9" fill="#2090a0" opacity="0.15"/>
  <text x="15" y="285" font-family="monospace" font-size="9" fill="#2a7888" letter-spacing="1">LOSCIL — SUBMERS</text>
</svg>