<svg xmlns="http://www.w3.org/2000/svg" viewBox="0 0 300 300">
  <rect width="300" height="300" fill="#0a0a0a"/>
  <!-- Algorithmic dot grid - regular positions -->
  <g fill="#e87830" opacity="0.9">
    <!-- Row 1 -->
    <circle cx="30" cy="30" r="2.5"/><circle cx="55" cy="30" r="2.5"/><circle cx="80" cy="30" r="2.5"/>
    <circle cx="105" cy="30" r="2.5"/><circle cx="130" cy="30" r="2.5"/><circle cx="155" cy="30" r="2.5"/>
    <circle cx="180" cy="30" r="2.5"/><circle cx="205" cy="30" r="2.5"/><circle cx="230" cy="30" r="2.5"/>
    <circle cx="255" cy="30" r="2.5"/><circle cx="280" cy="30" r="2.5"/>
    <!-- Row 2 -->
    <circle cx="30" cy="55" r="2.5"/><circle cx="55" cy="55" r="2.5"/><circle cx="80" cy="55" r="2.5"/>
    <circle cx="105" cy="55" r="2.5"/><circle cx="130" cy="55" r="2.5"/><circle cx="155" cy="55" r="2.5"/>
    <circle cx="180" cy="55" r="2.5"/><circle cx="205" cy="55" r="2.5"/><circle cx="230" cy="55" r="2.5"/>
    <circle cx="255" cy="55" r="2.5"/><circle cx="280" cy="55" r="2.5"/>
    <!-- Row 3 -->
    <circle cx="30" cy="80" r="2.5"/><circle cx="55" cy="80" r="2.5"/><circle cx="80" cy="80" r="2.5"/>
    <circle cx="105" cy="80" r="2.5"/><circle cx="130" cy="80" r="2.5"/><circle cx="155" cy="80" r="2.5"/>
    <circle cx="180" cy="80" r="2.5"/><circle cx="205" cy="80" r="2.5"/><circle cx="230" cy="80" r="2.5"/>
    <circle cx="255" cy="80" r="2.5"/><circle cx="280" cy="80" r="2.5"/>
    <!-- Row 4 -->
    <circle cx="30" cy="105" r="2.5"/><circle cx="55" cy="105" r="2.5"/><circle cx="80" cy="105" r="2.5"/>
    <circle cx="105" cy="105" r="2.5"/><circle cx="130" cy="105" r="2.5"/><circle cx="155" cy="105" r="2.5"/>
    <circle cx="180" cy="105" r="2.5"/><circle cx="205" cy="105" r="2.5"/><circle cx="230" cy="105" r="2.5"/>
    <circle cx="255" cy="105" r="2.5"/><circle cx="280" cy="105" r="2.5"/>
    <!-- Row 5 -->
    <circle cx="30" cy="130" r="2.5"/><circle cx="55" cy="130" r="2.5"/><circle cx="80" cy="130" r="2.5"/>
    <circle cx="105" cy="130" r="2.5"/><circle cx="130" cy="130" r="2.5"/><circle cx="155" cy="130" r="2.5"/>
    <circle cx="180" cy="130" r="2.5"/><circle cx="205" cy="130" r="2.5"/><circle cx="230" cy="130" r="2.5"/>
    <circle cx="255" cy="130" r="2.5"/><circle cx="280" cy="130" r="2.5"/>
    <!-- Row 6 -->
    <circle cx="30" cy="155" r="2.5"/><circle cx="55" cy="155" r="2.5"/><circle cx="80" cy="155" r="2.5"/>
    <circle cx="105" cy="155" r="2.5"/><circle cx="130" cy="155" r="2.5"/><circle cx="155" cy="155" r="2.5"/>
    <circle cx="180" cy="155" r="2.5"/><circle cx="205" cy="155" r="2.5"/><circle cx="230" cy="155" r="2.5"/>
    <circle cx="255" cy="155" r="2.5"/><circle cx="280" cy="155" r="2.5"/>
    <!-- Row 7 -->
    <circle cx="30" cy="180" r="2.5"/><circle cx="55" cy="180" r="2.5"/><circle cx="80" cy="180" r="2.5"/>
    <circle cx="105" cy="180" r="2.5"/><circle cx="130" cy="180" r="2.5"/><circle cx="155" cy="180" r="2.5"/>
    <circle cx="180" cy="180" r="2.5"/><circle cx="205" cy="180" r="2.5"/><circle cx="230" cy="180" r="2.5"/>
    <circle cx="255" cy="180" r="2.5"/><circle cx="280" cy="180" r="2.5"/>
    <!-- Row 8 -->
    <circle cx="30" cy="205" r="2.5"/><circle cx="55" cy="205" r="2.5"/><circle cx="80" cy="205" r="2.5"/>
    <circle cx="105" cy="205" r="2.5"/><circle cx="130" cy="205" r="2.5"/><circle cx="155" cy="205" r="2.5"/>
    <circle cx="180" cy="205" r="2.5"/><circle cx="205" cy="205" r="2.5"/><circle cx="230" cy="205" r="2.5"/>
    <circle cx="255" cy="205" r="2.5"/><circle cx="280" cy="205" r="2.5"/>
    <!-- Row 9 -->
    <circle cx="30" cy="230" r="2.5"/><circle cx="55" cy="230" r="2.5"/><circle cx="80" cy="230" r="2.5"/>
    <circle cx="105" cy="230" r="2.5"/><circle cx="130" cy="230" r="2.5"/><circle cx="155" cy="230" r="2.5"/>
    <circle cx="180" cy="230" r="2.5"/><circle cx="205" cy="230" r="2.5"/><circle cx="230" cy="230" r="2.5"/>
    <circle cx="255" cy="230" r="2.5"/><circle cx="280" cy="230" r="2.5"/>
    <!-- Row 10 -->
    <circle cx="30" cy="255" r="2.5"/><circle cx="55" cy="255" r="2.5"/><circle cx="80" cy="255" r="2.5"/>
    <circle cx="105" cy="255" r="2.5"/><circle cx="130" cy="255" r="2.5"/><circle cx="155" cy="255" r="2.5"/>
    <circle cx="180" cy="255" r="2.5"/><circle cx="205" cy="255" r="2.5"/><circle cx="230" cy="255" r="2.5"/>
    <circle cx="255" cy="255" r="2.5"/><circle cx="280" cy="255" r="2.5"/>
  </g>
  <!-- Offset/displaced dots - breaking the grid (multistability) -->
  <g fill="#ff9040" opacity="1">
    <circle cx="83" cy="107" r="3"/><circle cx="132" cy="78" r="3.5"/>
    <circle cx="207" cy="152" r="3"/><circle cx="158" cy="182" r="3.2"/>
    <circle cx="53" cy="207" r="2.8"/><circle cx="257" cy="107" r="3"/>
    <circle cx="178" cy="57" r="3.3"/><circle cx="108" cy="158" r="2.8"/>
    <circle cx="232" cy="232" r="3.5"/><circle cx="33" cy="133" r="3"/>
    <circle cx="283" cy="183" r="2.8"/><circle cx="57" cy="257" r="3.2"/>
    <circle cx="182" cy="108" r="3"/><circle cx="258" cy="53" r="2.8"/>
    <circle cx="133" cy="233" r="3.3"/>
  </g>
  <text x="15" y="285" font-family="monospace" font-size="9" fill="#e87830" letter-spacing="1">MARK FELL — MULTISTABILITY</text>
</svg>