<svg xmlns="http://www.w3.org/2000/svg" viewBox="0 0 300 300">
  <rect width="300" height="300" fill="#F0E8DC"/>
  <!-- Scattered dots of varying sizes - percussion, rhythmic minimalism -->
  <!-- Earth tone palette: terracotta, sienna, umber, ochre -->
  <!-- Large resonant hits -->
  <circle cx="85" cy="70" r="18" fill="#A0522D" opacity="0.35"/>
  <circle cx="210" cy="145" r="22" fill="#8B6914" opacity="0.3"/>
  <circle cx="130" cy="200" r="16" fill="#A0522D" opacity="0.32"/>
  <!-- Medium strikes -->
  <circle cx="185" cy="60" r="11" fill="#CD853F" opacity="0.35"/>
  <circle cx="55" cy="150" r="13" fill="#8B7355" opacity="0.38"/>
  <circle cx="245" cy="90" r="10" fill="#A0522D" opacity="0.3"/>
  <circle cx="160" cy="120" r="12" fill="#6B4226" opacity="0.28"/>
  <circle cx="75" cy="230" r="14" fill="#CD853F" opacity="0.3"/>
  <circle cx="240" cy="210" r="11" fill="#8B6914" opacity="0.32"/>
  <!-- Small taps and ghost notes -->
  <circle cx="120" cy="55" r="6" fill="#A0522D" opacity="0.3"/>
  <circle cx="40" cy="100" r="5" fill="#CD853F" opacity="0.28"/>
  <circle cx="150" cy="80" r="4" fill="#8B7355" opacity="0.25"/>
  <circle cx="260" cy="60" r="5" fill="#6B4226" opacity="0.22"/>
  <circle cx="100" cy="130" r="7" fill="#DAA520" opacity="0.25"/>
  <circle cx="200" cy="100" r="5" fill="#A0522D" opacity="0.28"/>
  <circle cx="30" cy="195" r="6" fill="#8B6914" opacity="0.25"/>
  <circle cx="180" cy="175" r="5" fill="#CD853F" opacity="0.28"/>
  <circle cx="110" cy="165" r="4" fill="#6B4226" opacity="0.22"/>
  <circle cx="265" cy="155" r="6" fill="#A0522D" opacity="0.25"/>
  <circle cx="200" cy="230" r="7" fill="#8B7355" opacity="0.28"/>
  <circle cx="155" cy="245" r="5" fill="#DAA520" opacity="0.22"/>
  <!-- Tiny rhythmic accents -->
  <circle cx="50" cy="65" r="2.5" fill="#A0522D" opacity="0.3"/>
  <circle cx="140" cy="42" r="2" fill="#8B7355" opacity="0.25"/>
  <circle cx="225" cy="42" r="2.5" fill="#CD853F" opacity="0.22"/>
  <circle cx="280" cy="130" r="2" fill="#6B4226" opacity="0.2"/>
  <circle cx="20" cy="140" r="2.5" fill="#DAA520" opacity="0.22"/>
  <circle cx="95" cy="105" r="3" fill="#A0522D" opacity="0.2"/>
  <circle cx="175" cy="150" r="2" fill="#8B6914" opacity="0.2"/>
  <circle cx="60" cy="250" r="3" fill="#CD853F" opacity="0.22"/>
  <circle cx="130" cy="250" r="2" fill="#8B7355" opacity="0.2"/>
  <circle cx="215" cy="250" r="2.5" fill="#A0522D" opacity="0.22"/>
  <circle cx="275" cy="200" r="2" fill="#6B4226" opacity="0.18"/>
  <circle cx="35" cy="45" r="1.5" fill="#DAA520" opacity="0.2"/>
  <circle cx="270" cy="245" r="1.5" fill="#A0522D" opacity="0.18"/>
  <circle cx="15" cy="225" r="2" fill="#8B6914" opacity="0.18"/>
  <text x="15" y="285" font-family="monospace" font-size="9" fill="#A09078" letter-spacing="1">MIDORI TAKADA — THROUGH THE LOOKING GLASS</text>
</svg>