<svg xmlns="http://www.w3.org/2000/svg" viewBox="0 0 300 300">
  <rect width="300" height="300" fill="#08090a"/>
  <!-- tight grid of small rectangles - industrial chain reaction aesthetic -->
  <g>
    <!-- grid rows - varying opacity and slight color shifts for industrial texture -->
    <!-- row 1 -->
    <rect x="20" y="20" width="4" height="3" fill="#2a5860" opacity="0.5"/>
    <rect x="30" y="20" width="4" height="3" fill="#2a5860" opacity="0.3"/>
    <rect x="40" y="20" width="4" height="3" fill="#3a6870" opacity="0.6"/>
    <rect x="50" y="20" width="4" height="3" fill="#2a5860" opacity="0.2"/>
    <rect x="60" y="20" width="4" height="3" fill="#2a5860" opacity="0.45"/>
    <rect x="70" y="20" width="4" height="3" fill="#3a6870" opacity="0.35"/>
    <rect x="80" y="20" width="4" height="3" fill="#2a5860" opacity="0.55"/>
    <rect x="90" y="20" width="4" height="3" fill="#2a5860" opacity="0.25"/>
    <rect x="100" y="20" width="4" height="3" fill="#3a6870" opacity="0.5"/>
    <rect x="110" y="20" width="4" height="3" fill="#2a5860" opacity="0.4"/>
    <rect x="120" y="20" width="4" height="3" fill="#2a5860" opacity="0.3"/>
    <rect x="130" y="20" width="4" height="3" fill="#3a6870" opacity="0.6"/>
    <rect x="140" y="20" width="4" height="3" fill="#2a5860" opacity="0.2"/>
    <rect x="150" y="20" width="4" height="3" fill="#2a5860" opacity="0.5"/>
    <rect x="160" y="20" width="4" height="3" fill="#3a6870" opacity="0.35"/>
    <rect x="170" y="20" width="4" height="3" fill="#2a5860" opacity="0.45"/>
    <rect x="180" y="20" width="4" height="3" fill="#2a5860" opacity="0.55"/>
    <rect x="190" y="20" width="4" height="3" fill="#3a6870" opacity="0.3"/>
    <rect x="200" y="20" width="4" height="3" fill="#2a5860" opacity="0.4"/>
    <rect x="210" y="20" width="4" height="3" fill="#2a5860" opacity="0.5"/>
    <rect x="220" y="20" width="4" height="3" fill="#3a6870" opacity="0.25"/>
    <rect x="230" y="20" width="4" height="3" fill="#2a5860" opacity="0.6"/>
    <rect x="240" y="20" width="4" height="3" fill="#2a5860" opacity="0.35"/>
    <rect x="250" y="20" width="4" height="3" fill="#3a6870" opacity="0.5"/>
    <rect x="260" y="20" width="4" height="3" fill="#2a5860" opacity="0.4"/>
    <rect x="270" y="20" width="4" height="3" fill="#2a5860" opacity="0.3"/>
    <!-- row 2 -->
    <rect x="20" y="32" width="4" height="3" fill="#2a5860" opacity="0.3"/>
    <rect x="30" y="32" width="4" height="3" fill="#3a6870" opacity="0.5"/>
    <rect x="40" y="32" width="4" height="3" fill="#2a5860" opacity="0.4"/>
    <rect x="50" y="32" width="4" height="3" fill="#2a5860" opacity="0.6"/>
    <rect x="60" y="32" width="4" height="3" fill="#3a6870" opacity="0.25"/>
    <rect x="70" y="32" width="4" height="3" fill="#2a5860" opacity="0.5"/>
    <rect x="80" y="32" width="4" height="3" fill="#2a5860" opacity="0.35"/>
    <rect x="90" y="32" width="4" height="3" fill="#3a6870" opacity="0.55"/>
    <rect x="100" y="32" width="4" height="3" fill="#2a5860" opacity="0.3"/>
    <rect x="110" y="32" width="4" height="3" fill="#2a5860" opacity="0.45"/>
    <rect x="120" y="32" width="4" height="3" fill="#3a6870" opacity="0.5"/>
    <rect x="130" y="32" width="4" height="3" fill="#2a5860" opacity="0.2"/>
    <rect x="140" y="32" width="4" height="3" fill="#2a5860" opacity="0.55"/>
    <rect x="150" y="32" width="4" height="3" fill="#3a6870" opacity="0.4"/>
    <rect x="160" y="32" width="4" height="3" fill="#2a5860" opacity="0.3"/>
    <rect x="170" y="32" width="4" height="3" fill="#3a6870" opacity="0.6"/>
    <rect x="180" y="32" width="4" height="3" fill="#2a5860" opacity="0.35"/>
    <rect x="190" y="32" width="4" height="3" fill="#2a5860" opacity="0.5"/>
    <rect x="200" y="32" width="4" height="3" fill="#3a6870" opacity="0.25"/>
    <rect x="210" y="32" width="4" height="3" fill="#2a5860" opacity="0.45"/>
    <rect x="220" y="32" width="4" height="3" fill="#2a5860" opacity="0.55"/>
    <rect x="230" y="32" width="4" height="3" fill="#3a6870" opacity="0.3"/>
    <rect x="240" y="32" width="4" height="3" fill="#2a5860" opacity="0.5"/>
    <rect x="250" y="32" width="4" height="3" fill="#2a5860" opacity="0.4"/>
    <rect x="260" y="32" width="4" height="3" fill="#3a6870" opacity="0.6"/>
    <rect x="270" y="32" width="4" height="3" fill="#2a5860" opacity="0.35"/>
    <!-- rows 3-20: generated grid pattern -->
    <rect x="20" y="44" width="4" height="3" fill="#3a6870" opacity="0.5"/>
    <rect x="30" y="44" width="4" height="3" fill="#2a5860" opacity="0.35"/>
    <rect x="40" y="44" width="4" height="3" fill="#2a5860" opacity="0.55"/>
    <rect x="50" y="44" width="4" height="3" fill="#3a6870" opacity="0.3"/>
    <rect x="60" y="44" width="4" height="3" fill="#2a5860" opacity="0.5"/>
    <rect x="70" y="44" width="4" height="3" fill="#2a5860" opacity="0.45"/>
    <rect x="80" y="44" width="4" height="3" fill="#3a6870" opacity="0.3"/>
    <rect x="90" y="44" width="4" height="3" fill="#2a5860" opacity="0.6"/>
    <rect x="100" y="44" width="4" height="3" fill="#2a5860" opacity="0.4"/>
    <rect x="110" y="44" width="4" height="3" fill="#3a6870" opacity="0.55"/>
    <rect x="120" y="44" width="4" height="3" fill="#2a5860" opacity="0.25"/>
    <rect x="130" y="44" width="4" height="3" fill="#2a5860" opacity="0.5"/>
    <rect x="140" y="44" width="4" height="3" fill="#3a6870" opacity="0.45"/>
    <rect x="150" y="44" width="4" height="3" fill="#2a5860" opacity="0.35"/>
    <rect x="160" y="44" width="4" height="3" fill="#2a5860" opacity="0.6"/>
    <rect x="170" y="44" width="4" height="3" fill="#2a5860" opacity="0.3"/>
    <rect x="180" y="44" width="4" height="3" fill="#3a6870" opacity="0.5"/>
    <rect x="190" y="44" width="4" height="3" fill="#2a5860" opacity="0.4"/>
    <rect x="200" y="44" width="4" height="3" fill="#3a6870" opacity="0.55"/>
    <rect x="210" y="44" width="4" height="3" fill="#2a5860" opacity="0.3"/>
    <rect x="220" y="44" width="4" height="3" fill="#2a5860" opacity="0.5"/>
    <rect x="230" y="44" width="4" height="3" fill="#2a5860" opacity="0.45"/>
    <rect x="240" y="44" width="4" height="3" fill="#3a6870" opacity="0.35"/>
    <rect x="250" y="44" width="4" height="3" fill="#2a5860" opacity="0.55"/>
    <rect x="260" y="44" width="4" height="3" fill="#2a5860" opacity="0.3"/>
    <rect x="270" y="44" width="4" height="3" fill="#3a6870" opacity="0.5"/>
    <!-- row 4 -->
    <rect x="20" y="56" width="4" height="3" fill="#2a5860" opacity="0.4"/>
    <rect x="30" y="56" width="4" height="3" fill="#2a5860" opacity="0.55"/>
    <rect x="40" y="56" width="4" height="3" fill="#3a6870" opacity="0.3"/>
    <rect x="50" y="56" width="4" height="3" fill="#2a5860" opacity="0.5"/>
    <rect x="60" y="56" width="4" height="3" fill="#3a6870" opacity="0.6"/>
    <rect x="70" y="56" width="4" height="3" fill="#2a5860" opacity="0.25"/>
    <rect x="80" y="56" width="4" height="3" fill="#2a5860" opacity="0.5"/>
    <rect x="90" y="56" width="4" height="3" fill="#3a6870" opacity="0.4"/>
    <rect x="100" y="56" width="4" height="3" fill="#2a5860" opacity="0.55"/>
    <rect x="110" y="56" width="4" height="3" fill="#2a5860" opacity="0.3"/>
    <rect x="120" y="56" width="4" height="3" fill="#2a5860" opacity="0.6"/>
    <rect x="130" y="56" width="4" height="3" fill="#3a6870" opacity="0.35"/>
    <rect x="140" y="56" width="4" height="3" fill="#2a5860" opacity="0.5"/>
    <rect x="150" y="56" width="4" height="3" fill="#2a5860" opacity="0.45"/>
    <rect x="160" y="56" width="4" height="3" fill="#3a6870" opacity="0.5"/>
    <rect x="170" y="56" width="4" height="3" fill="#2a5860" opacity="0.4"/>
    <rect x="180" y="56" width="4" height="3" fill="#2a5860" opacity="0.3"/>
    <rect x="190" y="56" width="4" height="3" fill="#3a6870" opacity="0.55"/>
    <rect x="200" y="56" width="4" height="3" fill="#2a5860" opacity="0.5"/>
    <rect x="210" y="56" width="4" height="3" fill="#2a5860" opacity="0.35"/>
    <rect x="220" y="56" width="4" height="3" fill="#3a6870" opacity="0.6"/>
    <rect x="230" y="56" width="4" height="3" fill="#2a5860" opacity="0.3"/>
    <rect x="240" y="56" width="4" height="3" fill="#2a5860" opacity="0.5"/>
    <rect x="250" y="56" width="4" height="3" fill="#3a6870" opacity="0.45"/>
    <rect x="260" y="56" width="4" height="3" fill="#2a5860" opacity="0.35"/>
    <rect x="270" y="56" width="4" height="3" fill="#2a5860" opacity="0.55"/>
    <!-- rows 5-20 continue the pattern with varying opacity -->
    <rect x="20" y="68" width="4" height="3" fill="#3a6870" opacity="0.35"/>
    <rect x="40" y="68" width="4" height="3" fill="#2a5860" opacity="0.5"/>
    <rect x="60" y="68" width="4" height="3" fill="#2a5860" opacity="0.4"/>
    <rect x="80" y="68" width="4" height="3" fill="#3a6870" opacity="0.55"/>
    <rect x="100" y="68" width="4" height="3" fill="#2a5860" opacity="0.3"/>
    <rect x="120" y="68" width="4" height="3" fill="#3a6870" opacity="0.45"/>
    <rect x="140" y="68" width="4" height="3" fill="#2a5860" opacity="0.6"/>
    <rect x="160" y="68" width="4" height="3" fill="#2a5860" opacity="0.35"/>
    <rect x="180" y="68" width="4" height="3" fill="#3a6870" opacity="0.5"/>
    <rect x="200" y="68" width="4" height="3" fill="#2a5860" opacity="0.4"/>
    <rect x="220" y="68" width="4" height="3" fill="#2a5860" opacity="0.55"/>
    <rect x="240" y="68" width="4" height="3" fill="#3a6870" opacity="0.3"/>
    <rect x="260" y="68" width="4" height="3" fill="#2a5860" opacity="0.5"/>
    <rect x="30" y="68" width="4" height="3" fill="#2a5860" opacity="0.45"/>
    <rect x="50" y="68" width="4" height="3" fill="#3a6870" opacity="0.3"/>
    <rect x="70" y="68" width="4" height="3" fill="#2a5860" opacity="0.5"/>
    <rect x="90" y="68" width="4" height="3" fill="#2a5860" opacity="0.6"/>
    <rect x="110" y="68" width="4" height="3" fill="#3a6870" opacity="0.35"/>
    <rect x="130" y="68" width="4" height="3" fill="#2a5860" opacity="0.5"/>
    <rect x="150" y="68" width="4" height="3" fill="#2a5860" opacity="0.4"/>
    <rect x="170" y="68" width="4" height="3" fill="#3a6870" opacity="0.55"/>
    <rect x="190" y="68" width="4" height="3" fill="#2a5860" opacity="0.3"/>
    <rect x="210" y="68" width="4" height="3" fill="#2a5860" opacity="0.5"/>
    <rect x="230" y="68" width="4" height="3" fill="#3a6870" opacity="0.45"/>
    <rect x="250" y="68" width="4" height="3" fill="#2a5860" opacity="0.35"/>
    <rect x="270" y="68" width="4" height="3" fill="#2a5860" opacity="0.5"/>
    <!-- rows 6-18 with sparser fill for visual rhythm -->
    <rect x="20" y="80" width="4" height="3" fill="#2a5860" opacity="0.5"/>
    <rect x="50" y="80" width="4" height="3" fill="#3a6870" opacity="0.4"/>
    <rect x="80" y="80" width="4" height="3" fill="#2a5860" opacity="0.55"/>
    <rect x="110" y="80" width="4" height="3" fill="#2a5860" opacity="0.3"/>
    <rect x="140" y="80" width="4" height="3" fill="#3a6870" opacity="0.5"/>
    <rect x="170" y="80" width="4" height="3" fill="#2a5860" opacity="0.45"/>
    <rect x="200" y="80" width="4" height="3" fill="#3a6870" opacity="0.35"/>
    <rect x="230" y="80" width="4" height="3" fill="#2a5860" opacity="0.5"/>
    <rect x="260" y="80" width="4" height="3" fill="#2a5860" opacity="0.4"/>
    <rect x="35" y="80" width="4" height="3" fill="#2a5860" opacity="0.35"/>
    <rect x="65" y="80" width="4" height="3" fill="#3a6870" opacity="0.5"/>
    <rect x="95" y="80" width="4" height="3" fill="#2a5860" opacity="0.6"/>
    <rect x="125" y="80" width="4" height="3" fill="#2a5860" opacity="0.45"/>
    <rect x="155" y="80" width="4" height="3" fill="#3a6870" opacity="0.3"/>
    <rect x="185" y="80" width="4" height="3" fill="#2a5860" opacity="0.5"/>
    <rect x="215" y="80" width="4" height="3" fill="#3a6870" opacity="0.55"/>
    <rect x="245" y="80" width="4" height="3" fill="#2a5860" opacity="0.4"/>
    <rect x="275" y="80" width="4" height="3" fill="#2a5860" opacity="0.3"/>
    <!-- continue filling grid downward -->
    <rect x="20" y="92" width="4" height="3" fill="#3a6870" opacity="0.4"/>
    <rect x="40" y="92" width="4" height="3" fill="#2a5860" opacity="0.55"/>
    <rect x="60" y="92" width="4" height="3" fill="#2a5860" opacity="0.3"/>
    <rect x="80" y="92" width="4" height="3" fill="#3a6870" opacity="0.5"/>
    <rect x="100" y="92" width="4" height="3" fill="#2a5860" opacity="0.45"/>
    <rect x="120" y="92" width="4" height="3" fill="#2a5860" opacity="0.6"/>
    <rect x="140" y="92" width="4" height="3" fill="#3a6870" opacity="0.35"/>
    <rect x="160" y="92" width="4" height="3" fill="#2a5860" opacity="0.5"/>
    <rect x="180" y="92" width="4" height="3" fill="#2a5860" opacity="0.4"/>
    <rect x="200" y="92" width="4" height="3" fill="#3a6870" opacity="0.55"/>
    <rect x="220" y="92" width="4" height="3" fill="#2a5860" opacity="0.3"/>
    <rect x="240" y="92" width="4" height="3" fill="#2a5860" opacity="0.5"/>
    <rect x="260" y="92" width="4" height="3" fill="#3a6870" opacity="0.45"/>
    <!-- rows 8-18 -->
    <rect x="25" y="104" width="4" height="3" fill="#2a5860" opacity="0.5"/>
    <rect x="45" y="104" width="4" height="3" fill="#3a6870" opacity="0.35"/>
    <rect x="65" y="104" width="4" height="3" fill="#2a5860" opacity="0.55"/>
    <rect x="85" y="104" width="4" height="3" fill="#2a5860" opacity="0.4"/>
    <rect x="105" y="104" width="4" height="3" fill="#3a6870" opacity="0.5"/>
    <rect x="125" y="104" width="4" height="3" fill="#2a5860" opacity="0.3"/>
    <rect x="145" y="104" width="4" height="3" fill="#2a5860" opacity="0.6"/>
    <rect x="165" y="104" width="4" height="3" fill="#3a6870" opacity="0.45"/>
    <rect x="185" y="104" width="4" height="3" fill="#2a5860" opacity="0.35"/>
    <rect x="205" y="104" width="4" height="3" fill="#2a5860" opacity="0.5"/>
    <rect x="225" y="104" width="4" height="3" fill="#3a6870" opacity="0.55"/>
    <rect x="245" y="104" width="4" height="3" fill="#2a5860" opacity="0.4"/>
    <rect x="265" y="104" width="4" height="3" fill="#2a5860" opacity="0.3"/>
    <rect x="20" y="116" width="4" height="3" fill="#3a6870" opacity="0.45"/>
    <rect x="50" y="116" width="4" height="3" fill="#2a5860" opacity="0.5"/>
    <rect x="80" y="116" width="4" height="3" fill="#2a5860" opacity="0.35"/>
    <rect x="110" y="116" width="4" height="3" fill="#3a6870" opacity="0.6"/>
    <rect x="140" y="116" width="4" height="3" fill="#2a5860" opacity="0.4"/>
    <rect x="170" y="116" width="4" height="3" fill="#2a5860" opacity="0.5"/>
    <rect x="200" y="116" width="4" height="3" fill="#3a6870" opacity="0.3"/>
    <rect x="230" y="116" width="4" height="3" fill="#2a5860" opacity="0.55"/>
    <rect x="260" y="116" width="4" height="3" fill="#2a5860" opacity="0.45"/>
    <!-- continue to row 18 with increasingly sparse placement -->
    <rect x="30" y="128" width="4" height="3" fill="#2a5860" opacity="0.5"/>
    <rect x="60" y="128" width="4" height="3" fill="#3a6870" opacity="0.4"/>
    <rect x="90" y="128" width="4" height="3" fill="#2a5860" opacity="0.55"/>
    <rect x="120" y="128" width="4" height="3" fill="#2a5860" opacity="0.3"/>
    <rect x="150" y="128" width="4" height="3" fill="#3a6870" opacity="0.5"/>
    <rect x="180" y="128" width="4" height="3" fill="#2a5860" opacity="0.45"/>
    <rect x="210" y="128" width="4" height="3" fill="#3a6870" opacity="0.35"/>
    <rect x="240" y="128" width="4" height="3" fill="#2a5860" opacity="0.5"/>
    <rect x="270" y="128" width="4" height="3" fill="#2a5860" opacity="0.4"/>
    <rect x="20" y="140" width="4" height="3" fill="#2a5860" opacity="0.4"/>
    <rect x="50" y="140" width="4" height="3" fill="#3a6870" opacity="0.55"/>
    <rect x="80" y="140" width="4" height="3" fill="#2a5860" opacity="0.3"/>
    <rect x="110" y="140" width="4" height="3" fill="#2a5860" opacity="0.5"/>
    <rect x="140" y="140" width="4" height="3" fill="#3a6870" opacity="0.45"/>
    <rect x="170" y="140" width="4" height="3" fill="#2a5860" opacity="0.6"/>
    <rect x="200" y="140" width="4" height="3" fill="#2a5860" opacity="0.35"/>
    <rect x="230" y="140" width="4" height="3" fill="#3a6870" opacity="0.5"/>
    <rect x="260" y="140" width="4" height="3" fill="#2a5860" opacity="0.4"/>
    <rect x="35" y="152" width="4" height="3" fill="#3a6870" opacity="0.5"/>
    <rect x="65" y="152" width="4" height="3" fill="#2a5860" opacity="0.4"/>
    <rect x="95" y="152" width="4" height="3" fill="#2a5860" opacity="0.55"/>
    <rect x="125" y="152" width="4" height="3" fill="#3a6870" opacity="0.3"/>
    <rect x="155" y="152" width="4" height="3" fill="#2a5860" opacity="0.5"/>
    <rect x="185" y="152" width="4" height="3" fill="#2a5860" opacity="0.45"/>
    <rect x="215" y="152" width="4" height="3" fill="#3a6870" opacity="0.35"/>
    <rect x="245" y="152" width="4" height="3" fill="#2a5860" opacity="0.55"/>
    <rect x="275" y="152" width="4" height="3" fill="#2a5860" opacity="0.3"/>
    <!-- rows 13-18 -->
    <rect x="20" y="164" width="4" height="3" fill="#2a5860" opacity="0.35"/>
    <rect x="50" y="164" width="4" height="3" fill="#2a5860" opacity="0.5"/>
    <rect x="80" y="164" width="4" height="3" fill="#3a6870" opacity="0.45"/>
    <rect x="110" y="164" width="4" height="3" fill="#2a5860" opacity="0.55"/>
    <rect x="140" y="164" width="4" height="3" fill="#2a5860" opacity="0.3"/>
    <rect x="170" y="164" width="4" height="3" fill="#3a6870" opacity="0.5"/>
    <rect x="200" y="164" width="4" height="3" fill="#2a5860" opacity="0.4"/>
    <rect x="230" y="164" width="4" height="3" fill="#2a5860" opacity="0.6"/>
    <rect x="260" y="164" width="4" height="3" fill="#3a6870" opacity="0.35"/>
    <rect x="30" y="176" width="4" height="3" fill="#3a6870" opacity="0.45"/>
    <rect x="60" y="176" width="4" height="3" fill="#2a5860" opacity="0.5"/>
    <rect x="90" y="176" width="4" height="3" fill="#2a5860" opacity="0.35"/>
    <rect x="120" y="176" width="4" height="3" fill="#3a6870" opacity="0.55"/>
    <rect x="150" y="176" width="4" height="3" fill="#2a5860" opacity="0.4"/>
    <rect x="180" y="176" width="4" height="3" fill="#2a5860" opacity="0.3"/>
    <rect x="210" y="176" width="4" height="3" fill="#3a6870" opacity="0.5"/>
    <rect x="240" y="176" width="4" height="3" fill="#2a5860" opacity="0.55"/>
    <rect x="270" y="176" width="4" height="3" fill="#2a5860" opacity="0.4"/>
    <rect x="20" y="188" width="4" height="3" fill="#2a5860" opacity="0.5"/>
    <rect x="50" y="188" width="4" height="3" fill="#3a6870" opacity="0.35"/>
    <rect x="80" y="188" width="4" height="3" fill="#2a5860" opacity="0.55"/>
    <rect x="110" y="188" width="4" height="3" fill="#2a5860" opacity="0.4"/>
    <rect x="140" y="188" width="4" height="3" fill="#3a6870" opacity="0.5"/>
    <rect x="170" y="188" width="4" height="3" fill="#2a5860" opacity="0.3"/>
    <rect x="200" y="188" width="4" height="3" fill="#2a5860" opacity="0.6"/>
    <rect x="230" y="188" width="4" height="3" fill="#3a6870" opacity="0.45"/>
    <rect x="260" y="188" width="4" height="3" fill="#2a5860" opacity="0.35"/>
    <rect x="40" y="200" width="4" height="3" fill="#2a5860" opacity="0.45"/>
    <rect x="70" y="200" width="4" height="3" fill="#3a6870" opacity="0.5"/>
    <rect x="100" y="200" width="4" height="3" fill="#2a5860" opacity="0.3"/>
    <rect x="130" y="200" width="4" height="3" fill="#2a5860" opacity="0.55"/>
    <rect x="160" y="200" width="4" height="3" fill="#3a6870" opacity="0.4"/>
    <rect x="190" y="200" width="4" height="3" fill="#2a5860" opacity="0.5"/>
    <rect x="220" y="200" width="4" height="3" fill="#2a5860" opacity="0.35"/>
    <rect x="250" y="200" width="4" height="3" fill="#3a6870" opacity="0.55"/>
    <rect x="20" y="212" width="4" height="3" fill="#3a6870" opacity="0.4"/>
    <rect x="60" y="212" width="4" height="3" fill="#2a5860" opacity="0.5"/>
    <rect x="100" y="212" width="4" height="3" fill="#2a5860" opacity="0.55"/>
    <rect x="140" y="212" width="4" height="3" fill="#3a6870" opacity="0.3"/>
    <rect x="180" y="212" width="4" height="3" fill="#2a5860" opacity="0.5"/>
    <rect x="220" y="212" width="4" height="3" fill="#2a5860" opacity="0.45"/>
    <rect x="260" y="212" width="4" height="3" fill="#3a6870" opacity="0.5"/>
    <rect x="30" y="224" width="4" height="3" fill="#2a5860" opacity="0.5"/>
    <rect x="70" y="224" width="4" height="3" fill="#2a5860" opacity="0.35"/>
    <rect x="110" y="224" width="4" height="3" fill="#3a6870" opacity="0.45"/>
    <rect x="150" y="224" width="4" height="3" fill="#2a5860" opacity="0.55"/>
    <rect x="190" y="224" width="4" height="3" fill="#2a5860" opacity="0.4"/>
    <rect x="230" y="224" width="4" height="3" fill="#3a6870" opacity="0.5"/>
    <rect x="270" y="224" width="4" height="3" fill="#2a5860" opacity="0.3"/>
    <rect x="20" y="236" width="4" height="3" fill="#2a5860" opacity="0.45"/>
    <rect x="60" y="236" width="4" height="3" fill="#3a6870" opacity="0.5"/>
    <rect x="100" y="236" width="4" height="3" fill="#2a5860" opacity="0.35"/>
    <rect x="140" y="236" width="4" height="3" fill="#2a5860" opacity="0.55"/>
    <rect x="180" y="236" width="4" height="3" fill="#3a6870" opacity="0.4"/>
    <rect x="220" y="236" width="4" height="3" fill="#2a5860" opacity="0.5"/>
    <rect x="260" y="236" width="4" height="3" fill="#2a5860" opacity="0.3"/>
    <rect x="40" y="248" width="4" height="3" fill="#3a6870" opacity="0.4"/>
    <rect x="80" y="248" width="4" height="3" fill="#2a5860" opacity="0.55"/>
    <rect x="120" y="248" width="4" height="3" fill="#2a5860" opacity="0.3"/>
    <rect x="160" y="248" width="4" height="3" fill="#3a6870" opacity="0.5"/>
    <rect x="200" y="248" width="4" height="3" fill="#2a5860" opacity="0.45"/>
    <rect x="240" y="248" width="4" height="3" fill="#2a5860" opacity="0.35"/>
  </g>
  <text x="15" y="285" font-family="monospace" font-size="10" fill="#3a6870" letter-spacing="1">PORTER RICKS — BIOKINETICS</text>
</svg>
