<svg xmlns="http://www.w3.org/2000/svg" viewBox="0 0 300 300">
  <rect width="300" height="300" fill="#2C2A24"/>
  <!-- Organ drone - single horizontal band that slowly shifts, earth tones -->
  <!-- Deep background layer -->
  <rect x="0" y="115" width="300" height="80" fill="#5C5438" opacity="0.3"/>
  <!-- Main drone band - layered for depth -->
  <rect x="0" y="125" width="300" height="55" fill="#8B7D52" opacity="0.25"/>
  <rect x="0" y="130" width="300" height="45" fill="#A09060" opacity="0.2"/>
  <rect x="0" y="135" width="300" height="35" fill="#B8A672" opacity="0.2"/>
  <!-- Subtle ochre core -->
  <rect x="0" y="140" width="300" height="25" fill="#C4A85A" opacity="0.18"/>
  <rect x="0" y="145" width="300" height="15" fill="#D4BA6A" opacity="0.15"/>
  <rect x="0" y="148" width="300" height="8" fill="#E0C878" opacity="0.12"/>
  <!-- Sage tint layers above and below -->
  <rect x="0" y="108" width="300" height="12" fill="#6B7B5A" opacity="0.15"/>
  <rect x="0" y="185" width="300" height="12" fill="#6B7B5A" opacity="0.15"/>
  <!-- Very subtle harmonic partials - thin lines -->
  <rect x="0" y="90" width="300" height="1.5" fill="#8B7D52" opacity="0.12"/>
  <rect x="0" y="100" width="300" height="1" fill="#A09060" opacity="0.1"/>
  <rect x="0" y="200" width="300" height="1.5" fill="#8B7D52" opacity="0.12"/>
  <rect x="0" y="210" width="300" height="1" fill="#6B7B5A" opacity="0.08"/>
  <!-- Faint upper partials -->
  <rect x="0" y="70" width="300" height="0.8" fill="#C4A85A" opacity="0.06"/>
  <rect x="0" y="230" width="300" height="0.8" fill="#C4A85A" opacity="0.06"/>
  <!-- Slight gradient shift across the band (left to right color shift) -->
  <rect x="0" y="130" width="100" height="45" fill="#6B7B5A" opacity="0.08"/>
  <rect x="200" y="130" width="100" height="45" fill="#8B6B3A" opacity="0.08"/>
  <text x="15" y="285" font-family="monospace" font-size="9" fill="#6B6350" letter-spacing="1">SARAH DAVACHI — GAVE IN REST</text>
</svg>