<svg xmlns="http://www.w3.org/2000/svg" viewBox="0 0 300 300">
  <rect width="300" height="300" fill="#0a1520"/>
  <!-- overlapping translucent rectangles suggesting depth, murk, and delay -->
  <g>
    <!-- deep background layers -->
    <rect x="10" y="30" width="180" height="60" fill="#0a2838" opacity="0.5" rx="1"/>
    <rect x="80" y="50" width="200" height="50" fill="#0c3040" opacity="0.4" rx="1"/>
    <rect x="20" y="70" width="150" height="45" fill="#0a2530" opacity="0.45" rx="1"/>
    <!-- mid layers -->
    <rect x="40" y="90" width="220" height="55" fill="#103848" opacity="0.35" rx="1"/>
    <rect x="5" y="110" width="170" height="40" fill="#0e3040" opacity="0.4" rx="1"/>
    <rect x="100" y="100" width="190" height="50" fill="#0c2838" opacity="0.3" rx="1"/>
    <rect x="30" y="130" width="240" height="35" fill="#124050" opacity="0.25" rx="1"/>
    <!-- central dense zone -->
    <rect x="15" y="145" width="260" height="45" fill="#184858" opacity="0.35" rx="1"/>
    <rect x="50" y="155" width="200" height="40" fill="#1a5060" opacity="0.3" rx="1"/>
    <rect x="70" y="160" width="180" height="35" fill="#1c5868" opacity="0.25" rx="1"/>
    <rect x="25" y="170" width="250" height="30" fill="#144048" opacity="0.3" rx="1"/>
    <!-- receding layers -->
    <rect x="60" y="185" width="210" height="45" fill="#103848" opacity="0.3" rx="1"/>
    <rect x="10" y="200" width="180" height="40" fill="#0e3040" opacity="0.35" rx="1"/>
    <rect x="90" y="210" width="200" height="35" fill="#0c2838" opacity="0.3" rx="1"/>
    <rect x="35" y="225" width="160" height="30" fill="#0a2530" opacity="0.35" rx="1"/>
    <rect x="120" y="235" width="170" height="25" fill="#0a2030" opacity="0.3" rx="1"/>
    <rect x="20" y="245" width="140" height="20" fill="#0a1828" opacity="0.25" rx="1"/>
  </g>
  <!-- faint teal glow in center -->
  <circle cx="150" cy="165" r="80" fill="#1a6878" opacity="0.06"/>
  <text x="15" y="285" font-family="monospace" font-size="10" fill="#2a5868" letter-spacing="1">VLADISLAV DELAY — MULTILA</text>
</svg>
