<svg xmlns="http://www.w3.org/2000/svg" viewBox="0 0 300 300">
  <rect width="300" height="300" fill="#f5f3f0"/>
  <g opacity="0.5">
    <rect x="50" y="50" width="4" height="4" fill="#1a1a1a"/>
    <rect x="70" y="55" width="2" height="2" fill="#1a1a1a"/>
    <rect x="100" y="48" width="6" height="2" fill="#1a1a1a"/>
    <rect x="130" y="52" width="3" height="3" fill="#1a1a1a"/>
    <rect x="160" y="46" width="2" height="6" fill="#1a1a1a"/>
    <rect x="190" y="53" width="4" height="2" fill="#1a1a1a"/>
    <rect x="220" y="49" width="2" height="4" fill="#1a1a1a"/>
    <rect x="250" y="51" width="5" height="2" fill="#1a1a1a"/>
    <rect x="40" y="120" width="3" height="3" fill="#cc2244"/>
    <rect x="80" y="118" width="5" height="2" fill="#cc2244"/>
    <rect x="115" y="122" width="2" height="4" fill="#cc2244"/>
    <rect x="150" y="117" width="4" height="3" fill="#cc2244"/>
    <rect x="185" y="121" width="2" height="2" fill="#cc2244"/>
    <rect x="210" y="119" width="6" height="2" fill="#cc2244"/>
    <rect x="245" y="123" width="3" height="3" fill="#cc2244"/>
    <rect x="55" y="185" width="2" height="2" fill="#1a1a1a"/>
    <rect x="90" y="190" width="4" height="2" fill="#1a1a1a"/>
    <rect x="125" y="183" width="3" height="5" fill="#1a1a1a"/>
    <rect x="155" y="188" width="2" height="3" fill="#1a1a1a"/>
    <rect x="195" y="184" width="5" height="2" fill="#1a1a1a"/>
    <rect x="230" y="190" width="2" height="4" fill="#1a1a1a"/>
    <rect x="260" y="186" width="4" height="2" fill="#1a1a1a"/>
    <rect x="45" y="240" width="4" height="2" fill="#0055cc"/>
    <rect x="85" y="245" width="2" height="3" fill="#0055cc"/>
    <rect x="120" y="238" width="3" height="4" fill="#0055cc"/>
    <rect x="165" y="242" width="5" height="2" fill="#0055cc"/>
    <rect x="200" y="237" width="2" height="5" fill="#0055cc"/>
    <rect x="240" y="244" width="4" height="2" fill="#0055cc"/>
  </g>
  <text x="15" y="285" font-family="monospace" font-size="10" fill="#888" letter-spacing="1">ALVA NOTO — TRANSFORM</text>
</svg>
