<svg xmlns="http://www.w3.org/2000/svg" viewBox="0 0 300 300">
  <rect width="300" height="300" fill="#e8e4de"/>
  <g opacity="0.5">
    <rect x="30" y="30" width="8" height="8" fill="#1a1a1a"/>
    <rect x="50" y="25" width="3" height="15" fill="#0055cc"/>
    <rect x="75" y="40" width="12" height="3" fill="#1a1a1a"/>
    <rect x="110" y="28" width="5" height="5" fill="#cc2244"/>
    <rect x="140" y="35" width="3" height="10" fill="#1a1a1a"/>
    <rect x="170" y="30" width="10" height="4" fill="#0055cc"/>
    <rect x="200" y="42" width="4" height="4" fill="#1a1a1a"/>
    <rect x="235" y="33" width="6" height="8" fill="#cc2244"/>
    <rect x="25" y="80" width="15" height="2" fill="#0055cc"/>
    <rect x="60" y="75" width="4" height="12" fill="#1a1a1a"/>
    <rect x="95" y="82" width="8" height="3" fill="#cc2244"/>
    <rect x="130" y="78" width="3" height="8" fill="#0055cc"/>
    <rect x="165" y="85" width="10" height="2" fill="#1a1a1a"/>
    <rect x="205" y="76" width="5" height="6" fill="#cc2244"/>
    <rect x="240" y="80" width="12" height="3" fill="#0055cc"/>
    <rect x="40" y="130" width="6" height="6" fill="#cc2244"/>
    <rect x="80" y="125" width="3" height="14" fill="#1a1a1a"/>
    <rect x="115" y="135" width="10" height="2" fill="#0055cc"/>
    <rect x="155" y="128" width="4" height="8" fill="#1a1a1a"/>
    <rect x="185" y="132" width="8" height="4" fill="#cc2244"/>
    <rect x="225" y="127" width="5" height="10" fill="#0055cc"/>
    <rect x="260" y="134" width="3" height="5" fill="#1a1a1a"/>
    <rect x="35" y="180" width="10" height="3" fill="#1a1a1a"/>
    <rect x="70" y="175" width="4" height="10" fill="#0055cc"/>
    <rect x="105" y="183" width="6" height="4" fill="#cc2244"/>
    <rect x="145" y="178" width="3" height="8" fill="#1a1a1a"/>
    <rect x="180" y="185" width="12" height="2" fill="#0055cc"/>
    <rect x="220" y="176" width="5" height="6" fill="#1a1a1a"/>
    <rect x="255" y="182" width="8" height="3" fill="#cc2244"/>
    <rect x="30" y="230" width="4" height="12" fill="#0055cc"/>
    <rect x="65" y="225" width="8" height="4" fill="#1a1a1a"/>
    <rect x="100" y="232" width="3" height="6" fill="#cc2244"/>
    <rect x="140" y="228" width="10" height="2" fill="#0055cc"/>
    <rect x="175" y="235" width="5" height="8" fill="#1a1a1a"/>
    <rect x="215" y="226" width="6" height="5" fill="#cc2244"/>
    <rect x="250" y="233" width="4" height="10" fill="#0055cc"/>
  </g>
  <text x="15" y="285" font-family="monospace" font-size="10" fill="#888" letter-spacing="1">RICHARD DEVINE — CREATURE</text>
</svg>
