<svg xmlns="http://www.w3.org/2000/svg" viewBox="0 0 300 300">
  <defs>
    <linearGradient id="sky" x1="0" y1="0" x2="0" y2="1">
      <stop offset="0%" stop-color="#d4a574"/>
      <stop offset="50%" stop-color="#e8c9a0"/>
      <stop offset="100%" stop-color="#f0e0cc"/>
    </linearGradient>
  </defs>
  <rect width="300" height="300" fill="url(#sky)"/>
  <g opacity="0.15">
    <rect x="0" y="80" width="300" height="1" fill="#1a1a1a"/>
    <rect x="0" y="83" width="300" height="1" fill="#1a1a1a"/>
    <rect x="0" y="88" width="300" height="2" fill="#1a1a1a"/>
    <rect x="0" y="95" width="300" height="1" fill="#1a1a1a"/>
    <rect x="0" y="100" width="300" height="1" fill="#1a1a1a"/>
    <rect x="0" y="108" width="300" height="2" fill="#1a1a1a"/>
    <rect x="0" y="115" width="300" height="1" fill="#1a1a1a"/>
    <rect x="0" y="125" width="300" height="1" fill="#1a1a1a"/>
    <rect x="0" y="130" width="300" height="2" fill="#1a1a1a"/>
    <rect x="0" y="140" width="300" height="1" fill="#1a1a1a"/>
    <rect x="0" y="148" width="300" height="1" fill="#1a1a1a"/>
    <rect x="0" y="158" width="300" height="2" fill="#1a1a1a"/>
    <rect x="0" y="170" width="300" height="1" fill="#1a1a1a"/>
    <rect x="0" y="180" width="300" height="1" fill="#1a1a1a"/>
    <rect x="0" y="195" width="300" height="2" fill="#1a1a1a"/>
    <rect x="0" y="210" width="300" height="1" fill="#1a1a1a"/>
    <rect x="0" y="225" width="300" height="1" fill="#1a1a1a"/>
  </g>
  <text x="15" y="285" font-family="monospace" font-size="10" fill="#8a6a4a" letter-spacing="1">FENNESZ — ENDLESS SUMMER</text>
</svg>
