<svg xmlns="http://www.w3.org/2000/svg" viewBox="0 0 300 300">
  <rect width="300" height="300" fill="#0a0a0a"/>
  <g fill="#fff">
    <rect x="10" y="20" width="1" height="260" opacity="0.8"/>
    <rect x="13" y="20" width="2" height="260" opacity="0.6"/>
    <rect x="17" y="20" width="1" height="260" opacity="0.9"/>
    <rect x="22" y="20" width="3" height="260" opacity="0.4"/>
    <rect x="28" y="20" width="1" height="260" opacity="0.7"/>
    <rect x="32" y="20" width="1" height="260" opacity="0.5"/>
    <rect x="36" y="20" width="2" height="260" opacity="0.8"/>
    <rect x="42" y="20" width="1" height="260" opacity="0.3"/>
    <rect x="48" y="20" width="3" height="260" opacity="0.9"/>
    <rect x="55" y="20" width="1" height="260" opacity="0.6"/>
    <rect x="60" y="20" width="2" height="260" opacity="0.4"/>
    <rect x="66" y="20" width="1" height="260" opacity="0.7"/>
    <rect x="72" y="20" width="1" height="260" opacity="0.8"/>
    <rect x="78" y="20" width="3" height="260" opacity="0.5"/>
    <rect x="85" y="20" width="1" height="260" opacity="0.9"/>
    <rect x="90" y="20" width="2" height="260" opacity="0.3"/>
    <rect x="98" y="20" width="1" height="260" opacity="0.7"/>
    <rect x="105" y="20" width="1" height="260" opacity="0.6"/>
    <rect x="110" y="20" width="3" height="260" opacity="0.8"/>
    <rect x="118" y="20" width="1" height="260" opacity="0.4"/>
    <rect x="125" y="20" width="2" height="260" opacity="0.9"/>
    <rect x="132" y="20" width="1" height="260" opacity="0.5"/>
    <rect x="140" y="20" width="1" height="260" opacity="0.7"/>
    <rect x="145" y="20" width="3" height="260" opacity="0.6"/>
    <rect x="155" y="20" width="1" height="260" opacity="0.8"/>
    <rect x="160" y="20" width="2" height="260" opacity="0.4"/>
    <rect x="168" y="20" width="1" height="260" opacity="0.9"/>
    <rect x="175" y="20" width="1" height="260" opacity="0.3"/>
    <rect x="182" y="20" width="3" height="260" opacity="0.7"/>
    <rect x="190" y="20" width="1" height="260" opacity="0.5"/>
    <rect x="198" y="20" width="2" height="260" opacity="0.8"/>
    <rect x="205" y="20" width="1" height="260" opacity="0.6"/>
    <rect x="215" y="20" width="1" height="260" opacity="0.9"/>
    <rect x="220" y="20" width="3" height="260" opacity="0.4"/>
    <rect x="230" y="20" width="1" height="260" opacity="0.7"/>
    <rect x="238" y="20" width="2" height="260" opacity="0.8"/>
    <rect x="245" y="20" width="1" height="260" opacity="0.5"/>
    <rect x="252" y="20" width="1" height="260" opacity="0.9"/>
    <rect x="260" y="20" width="3" height="260" opacity="0.3"/>
    <rect x="268" y="20" width="1" height="260" opacity="0.6"/>
    <rect x="275" y="20" width="2" height="260" opacity="0.8"/>
    <rect x="282" y="20" width="1" height="260" opacity="0.4"/>
    <rect x="288" y="20" width="1" height="260" opacity="0.7"/>
  </g>
  <text x="15" y="295" font-family="monospace" font-size="10" fill="#555" letter-spacing="1">RYOJI IKEDA — DATAPLEX</text>
</svg>
