<svg xmlns="http://www.w3.org/2000/svg" viewBox="0 0 300 300">
  <rect width="300" height="300" fill="#eae7e2"/>
  <g opacity="0.6">
    <line x1="20" y1="0" x2="20" y2="300" stroke="#1a1a1a" stroke-width="1"/>
    <line x1="23" y1="0" x2="23" y2="300" stroke="#1a1a1a" stroke-width="2"/>
    <line x1="30" y1="0" x2="30" y2="300" stroke="#1a1a1a" stroke-width="1"/>
    <line x1="45" y1="0" x2="45" y2="300" stroke="#1a1a1a" stroke-width="3"/>
    <line x1="48" y1="0" x2="48" y2="300" stroke="#1a1a1a" stroke-width="1"/>
    <line x1="60" y1="0" x2="60" y2="300" stroke="#1a1a1a" stroke-width="1"/>
    <line x1="62" y1="0" x2="62" y2="300" stroke="#1a1a1a" stroke-width="2"/>
    <line x1="80" y1="0" x2="80" y2="300" stroke="#1a1a1a" stroke-width="1"/>
    <line x1="95" y1="0" x2="95" y2="300" stroke="#1a1a1a" stroke-width="2"/>
    <line x1="98" y1="0" x2="98" y2="300" stroke="#1a1a1a" stroke-width="1"/>
    <line x1="120" y1="0" x2="120" y2="300" stroke="#1a1a1a" stroke-width="3"/>
    <line x1="123" y1="0" x2="123" y2="300" stroke="#1a1a1a" stroke-width="1"/>
    <line x1="140" y1="0" x2="140" y2="300" stroke="#1a1a1a" stroke-width="1"/>
    <line x1="155" y1="0" x2="155" y2="300" stroke="#1a1a1a" stroke-width="2"/>
    <line x1="158" y1="0" x2="158" y2="300" stroke="#1a1a1a" stroke-width="1"/>
    <line x1="175" y1="0" x2="175" y2="300" stroke="#1a1a1a" stroke-width="1"/>
    <line x1="190" y1="0" x2="190" y2="300" stroke="#1a1a1a" stroke-width="3"/>
    <line x1="193" y1="0" x2="193" y2="300" stroke="#1a1a1a" stroke-width="1"/>
    <line x1="210" y1="0" x2="210" y2="300" stroke="#1a1a1a" stroke-width="2"/>
    <line x1="230" y1="0" x2="230" y2="300" stroke="#1a1a1a" stroke-width="1"/>
    <line x1="245" y1="0" x2="245" y2="300" stroke="#1a1a1a" stroke-width="1"/>
    <line x1="248" y1="0" x2="248" y2="300" stroke="#1a1a1a" stroke-width="2"/>
    <line x1="265" y1="0" x2="265" y2="300" stroke="#1a1a1a" stroke-width="3"/>
    <line x1="280" y1="0" x2="280" y2="300" stroke="#1a1a1a" stroke-width="1"/>
  </g>
  <text x="15" y="285" font-family="monospace" font-size="10" fill="#888" letter-spacing="1">OVAL — SYSTEMISCH</text>
</svg>
